# xmcd
#
# Track frame offsets: 
#        150
#        15947
#        29887
#        46180
#        60517
#        74557
#        90290
#        104725
#        116820
#        131962
#
# Disc length: 1962 seconds
#
# Revision: 4
# Processed by: cddbd v1.5PL3 Copyright (c) Steve Scherf et al.
# Submitted via: ExactAudioCopy v0.90b4
#
DISCID=8c07a80a
DTITLE=Rick Trevino - Learning As You Go
DYEAR=1996
DGENRE=Country
TTITLE0=Learning As You Go
TTITLE1=Running Out Of Reasons To Run
TTITLE2=I Only Get This Way With You
TTITLE3=See Rock City
TTITLE4=Oh Jenny
TTITLE5=Serious Love
TTITLE6=I Wish He Wouldn't Treat Her That Way
TTITLE7=Anytime
TTITLE8=Mary's Just A Plain Jane
TTITLE9=I'm Here For You
EXTD=YEAR: 1996
EXTT0=
EXTT1=
EXTT2=
EXTT3=
EXTT4=
EXTT5=
EXTT6=
EXTT7=
EXTT8=
EXTT9=
PLAYORDER=
